#!OML:ASF H:\Terrain\Patient Classification 1\Walking\liu\liu.ASF
:FULLY-SPECIFIED
:DEGREES
32
root 7.92329 15.3759 -28.6749 9.68866 -8.84587 -6.78543
lowerback -4.37252 3.94042 2.15433
upperback -0.134905 5.06687 3.37168
thorax 2.18694 2.53516 2.57697
lowerneck -20.1609 -5.59138 -14.1699
upperneck 15.3546 -6.73145 15.6962
head 9.20688 -2.41603 6.90799
rclavicle 3.41413e-014 -1.27222e-014
rhumerus -25.4995 26.3774 -82.4348
rradius 57.6606
rwrist -30.7568
rhand -32.5216 -23.2968
rfingers 7.12502
rthumb -5.75231 -53.1987
lclavicle 3.41413e-014 -1.27222e-014
lhumerus -57.8859 3.11365 83.029
lradius 22.8524
lwrist -0.468407
lhand -6.90253 -23.1415
lfingers 7.12502
lthumb 18.9646 5.95394
rfemur 21.4154 7.33437 28.165
rtibia -6.67916e-014
rfoot -13.2382 2.26553
rtoes -29.3398
lfemur -48.557 7.50501 -11.0144
ltibia 26.1161
lfoot -8.59335 10.5133
ltoes -10.8198
33
root 7.96465 15.3601 -28.4299 9.78053 -8.75431 -6.94668
lowerback -4.50875 3.91324 2.42243
upperback -0.218415 5.01413 3.33087
thorax 2.20512 2.51102 2.39073
lowerneck -19.7443 -5.49652 -13.9637
upperneck 15.0757 -6.65704 15.5775
head 9.01199 -2.39844 6.82821
rclavicle -1.27222e-014 -1.74931e-014
rhumerus -25.9932 26.1367 -82.8297
rradius 57.5837
rwrist -30.8037
rhand -32.2074 -16.307
rfingers 7.12502
rthumb -5.44897 -46.2169
lclavicle -1.27222e-014 -1.74931e-014
lhumerus -57.7947 4.30539 81.5193
lradius 21.7697
lwrist -2.12956
lhand -6.65952 -23.3823
lfingers 7.12502
lthumb 19.1983 5.69009
rfemur 22.1668 7.26352 28.0535
rtibia 1.90833e-014
rfoot -11.9261 2.53241
rtoes -27.2711
lfemur -49.353 8.16255 -11.5217
ltibia 28.1916
lfoot -5.56986 10.5371
ltoes -7.77959
34
root 8.01178 15.3515 -28.1844 9.88856 -8.48115 -7.02492
lowerback -4.67953 3.78279 2.61918
upperback -0.258183 4.8224 3.33548
thorax 2.27962 2.41677 2.28596
lowerneck -19.6824 -5.36527 -13.9543
upperneck 14.9747 -6.49793 15.6981
head 8.94526 -2.31476 6.89173
rclavicle -2.11209e-014 3.97569e-016
rhumerus -26.3644 25.9995 -83.1355
rradius 57.4488
rwrist -30.8055
rhand -32.3282 -16.4586
rfingers 7.12502
rthumb -5.56566 -46.3655
lclavicle -2.11209e-014 3.97569e-016
lhumerus -57.7977 5.59725 80.1498
lradius 20.9865
lwrist -3.82537
lhand -6.52157 -23.2488
lfingers 7.12502
lthumb 19.3309 5.81043
rfemur 22.7651 7.00943 27.878
rtibia 3.18055e-015
rfoot -10.6256 2.53807
rtoes -25.2652
lfemur -50.3041 8.5331 -12.0258
ltibia 30.4572
lfoot -3.06542 10.6844
ltoes -7.24998
35
root 8.05243 15.3378 -27.9402 9.97509 -8.28547 -6.96319
lowerback -4.79535 3.73551 2.62818
upperback -0.316349 4.75752 3.24571
thorax 2.29391 2.38464 2.19035
lowerneck -20.0016 -5.35391 -13.777
upperneck 15.1856 -6.5601 15.893
head 9.08776 -2.29992 6.93274
rclavicle 5.11871e-015 3.57812e-015
rhumerus -26.8768 25.6059 -83.4704
rradius 57.2593
rwrist -31.0022
rhand -32.6086 -23.0858
rfingers 7.12502
rthumb -5.83637 -52.9855
lclavicle 5.11871e-015 3.57812e-015
lhumerus -57.7188 6.27218 79.1538
lradius 20.3667
lwrist -4.99618
lhand -6.4343 -23.2576
lfingers 7.12502
lthumb 19.4148 5.79311
rfemur 23.3742 6.79917 27.5948
rtibia -9.54166e-015
rfoot -9.37605 2.48069
rtoes -26.3714
lfemur -51.1008 8.82737 -12.541
ltibia 32.7434
lfoot -1.75894 10.8945
ltoes -7.81431
36
root 8.08515 15.3175 -27.6996 10.0478 -8.23843 -6.68911
lowerback -4.78765 3.76503 2.29272
upperback -0.510912 4.82685 3.10815
thorax 2.07193 2.41692 2.22851
lowerneck -20.0567 -5.37603 -13.7237
upperneck 15.4053 -6.6739 16.1138
head 9.20036 -2.32428 6.9977
rclavicle -3.6477e-014 -3.53837e-014
rhumerus -27.8801 25.0532 -83.8672
rradius 57.2437
rwrist -31.1534
rhand -31.7606 -26.2189
rfingers 7.12502
rthumb -5.01758 -56.1394
lclavicle -3.6477e-014 -3.53837e-014
lhumerus -57.7081 6.5019 78.3911
lradius 19.7416
lwrist -5.874
lhand -6.59449 -23.235
lfingers 7.12502
lthumb 19.2608 5.83121
rfemur 23.9773 6.68988 27.1218
rtibia -3.18055e-014
rfoot -7.63132 2.24677
rtoes -27.5113
lfemur -51.7436 9.19821 -13.2789
ltibia 34.9618
lfoot -1.28067 11.1602
ltoes -7.54158
37
root 8.11971 15.3008 -27.4568 10.1618 -7.97254 -6.32534
lowerback -4.94723 3.69553 1.88437
upperback -0.638129 4.75709 2.99947
thorax 2.00732 2.37978 2.34358
lowerneck -20.0183 -5.40587 -13.7196
upperneck 15.375 -6.738 16.2044
head 9.19833 -2.34686 7.02008
rclavicle -4.32854e-014 -2.10712e-014
rhumerus -28.6697 24.5618 -84.1875
rradius 57.0526
rwrist -31.2326
rhand -31.3835 -17.2502
rfingers 7.12502
rthumb -4.65349 -47.1791
lclavicle -4.32854e-014 -2.10712e-014
lhumerus -57.5194 6.83827 77.7211
lradius 19.1412
lwrist -6.84374
lhand -6.56886 -23.2482
lfingers 7.12502
lthumb 19.2854 5.81552
rfemur 24.5244 6.37901 26.5188
rtibia -3.18055e-015
rfoot -5.72725 1.93224
rtoes -25.6265
lfemur -52.352 9.40966 -14.1396
ltibia 36.9848
lfoot -0.856364 10.9079
ltoes -6.45285
